<svg aria-hidden="true" style="position: absolute; width: 0; height: 0; overflow: hidden;" version="1.1" xmlns="http://www.w3.org/2000/svg" xmlns:xlink="http://www.w3.org/1999/xlink">
<defs>
<symbol id="icon-audio" viewBox="0 0 32 32">
<title>audio</title>
<path fill="#15b0a8" style="fill: var(--color1, #15b0a8)" d="M9.589 4.426h15.626v15.030c0 2.037-1.652 3.689-3.689 3.689v0h-14.888v-15.768c0-1.63 1.321-2.951 2.951-2.951v0z"></path>
<path fill="#fff" style="fill: var(--color2, #fff)" d="M23.14 14.086c0-0 0-0 0-0.001 0-3.993-3.237-7.231-7.231-7.231-1.997 0-3.805 0.809-5.113 2.118v0c-1.308 1.302-2.118 3.103-2.118 5.094 0 0.007 0 0.014 0 0.021v-0.001 3.423c0.002 1.938 1.572 3.509 3.51 3.512h0c0 0 0.001 0 0.001 0 0.23 0 0.416-0.186 0.416-0.416 0-0.001 0-0.001 0-0.002v0-6.184c0-0 0-0.001 0-0.001 0-0.23-0.186-0.416-0.416-0.416-0.001 0-0.001 0-0.002 0h0c-0.001 0-0.003 0-0.004 0-1.068 0-2.024 0.479-2.666 1.233l-0.004 0.005v-1.155c0-3.532 2.863-6.395 6.395-6.395s6.395 2.863 6.395 6.395v0c0 0.030 0.004 0.058 0.010 0.086l-0-0.003c-0.006 0.025-0.009 0.054-0.010 0.083v1.155c-0.646-0.759-1.602-1.238-2.67-1.238-0.001 0-0.003 0-0.004 0h0c-0 0-0.001 0-0.001 0-0.23 0-0.416 0.186-0.416 0.416 0 0.001 0 0.001 0 0.002v-0 6.181c0 0 0 0.001 0 0.001 0 0.23 0.186 0.416 0.416 0.416 0.001 0 0.001 0 0.002 0h-0c1.937-0.003 3.506-1.572 3.51-3.509v-3.424c-0-0.030-0.004-0.058-0.010-0.086l0 0.003c0.006-0.025 0.009-0.054 0.010-0.083v-0zM11.768 14.869v5.281c-1.286-0.209-2.255-1.311-2.255-2.64s0.97-2.431 2.24-2.638l0.015-0.002zM20.051 20.316v-5.281c1.286 0.209 2.255 1.311 2.255 2.64s-0.97 2.431-2.24 2.638l-0.015 0.002z"></path>
</symbol>
<symbol id="icon-pdf" viewBox="0 0 32 32">
<title>pdf</title>
<path fill="#b01554" style="fill: var(--color3, #b01554)" d="M9.589 4.426h15.626v15.030c0 2.037-1.652 3.689-3.689 3.689v0h-14.888v-15.768c0-1.63 1.321-2.951 2.951-2.951v0z"></path>
</symbol>
<symbol id="icon-download" viewBox="0 0 48 32">
<title>download</title>
<path fill="#15b0a8" style="fill: var(--color1, #15b0a8)" d="M30.503 18.152l-5.351 5.351-5.351-5.351h3.212v-4.28h4.28v4.28z"></path>
<path fill="#15b0a8" style="fill: var(--color1, #15b0a8)" d="M38.702 12.081c-1.405-6.935-7.452-12.082-14.701-12.082-5.754 0-10.75 3.243-13.261 8.001l-0.039 0.082c-6.050 0.67-10.712 5.754-10.712 11.926 0 6.625 5.37 11.995 11.995 11.995 0.006 0 0.011 0 0.017 0h25.999c5.506-0.002 9.969-4.466 9.969-9.972 0-5.26-4.073-9.569-9.237-9.945l-0.032-0.002zM38.003 28.001h-26.002c-0.044 0.001-0.096 0.001-0.148 0.001-4.419 0-8.001-3.582-8.001-8.001s3.582-8.001 8.001-8.001c0.052 0 0.104 0.001 0.156 0.002l-0.008-0h1.42c1.375-4.623 5.587-7.937 10.572-7.937 6.055 0 10.969 4.888 11.010 10.934l0 0.004v0.999h3c3.314 0 6 2.686 6 6s-2.686 6-6 6v0z"></path>
</symbol>
<symbol id="icon-alarm" viewBox="0 0 32 32">
<title>alarm</title>
<path fill="#15b0a8" style="fill: var(--color1, #15b0a8)" d="M31.681 6.179l-7.285-6.179-2.059 2.375 7.288 6.179zM9.358 2.535l-2.059-2.375-7.299 6.019 2.059 2.375 7.299-6.019zM16.632 9.823h-2.375v9.503l7.445 4.593 1.266-1.902-6.33-3.801zM15.839 3.493c-7.874 0-14.256 6.383-14.256 14.256s6.383 14.256 14.256 14.256c7.874 0 14.256-6.383 14.256-14.256v0c0-0.020 0-0.043 0-0.066 0-7.842-6.357-14.199-14.199-14.199-0.019 0-0.039 0-0.058 0h0.003zM15.839 28.838c-6.124 0-11.089-4.965-11.089-11.089s4.965-11.089 11.089-11.089c6.124 0 11.089 4.965 11.089 11.089v0c0 0.021 0 0.047 0 0.072 0 6.080-4.929 11.009-11.009 11.009-0.027 0-0.054-0-0.081-0l0.004 0z"></path>
</symbol>
<symbol id="icon-close" viewBox="0 0 32 32">
<title>close</title>
<path d="M31.708 25.708c-0-0-0-0-0-0l-9.708-9.708 9.708-9.708c0-0 0-0 0-0 0.105-0.105 0.18-0.227 0.229-0.357 0.133-0.356 0.057-0.771-0.229-1.057l-4.586-4.586c-0.286-0.286-0.702-0.361-1.057-0.229-0.13 0.048-0.252 0.124-0.357 0.228 0 0-0 0-0 0l-9.708 9.708-9.708-9.708c-0-0-0-0-0-0-0.105-0.104-0.227-0.18-0.357-0.228-0.356-0.133-0.771-0.057-1.057 0.229l-4.586 4.586c-0.286 0.286-0.361 0.702-0.229 1.057 0.049 0.13 0.124 0.252 0.229 0.357 0 0 0 0 0 0l9.708 9.708-9.708 9.708c-0 0-0 0-0 0-0.104 0.105-0.18 0.227-0.229 0.357-0.133 0.355-0.057 0.771 0.229 1.057l4.586 4.586c0.286 0.286 0.702 0.361 1.057 0.229 0.13-0.049 0.252-0.124 0.357-0.229 0-0 0-0 0-0l9.708-9.708 9.708 9.708c0 0 0 0 0 0 0.105 0.105 0.227 0.18 0.357 0.229 0.356 0.133 0.771 0.057 1.057-0.229l4.586-4.586c0.286-0.286 0.362-0.702 0.229-1.057-0.049-0.13-0.124-0.252-0.229-0.357z"></path>
</symbol>
</defs>
</svg>
